<svg width="2000px" height="972px"
 viewBox="0.00 0.00 502.43 244.48" xmlns="http://www.w3.org/2000/svg" xmlns:xlink="http://www.w3.org/1999/xlink">
<g id="graph0" class="graph" transform="scale(1.0 1.0) rotate(0) translate(4 240.48)">
<title>ContextMapGraph</title>
<polygon fill="white" stroke="transparent" points="-4,4 -4,-240.48 498.43,-240.48 498.43,4 -4,4"/>
<!-- gestionCliente -->
<g id="node1" class="node">
<title>gestionCliente</title>
<polygon fill="none" stroke="black" stroke-width="2" points="214.23,-72.52 210.33,-74.96 206.19,-77.31 201.83,-79.57 197.26,-81.74 192.5,-83.79 187.57,-85.73 182.48,-87.54 177.25,-89.22 171.9,-90.77 166.44,-92.16 160.9,-93.41 155.28,-94.5 149.61,-95.43 143.9,-96.2 138.16,-96.81 132.42,-97.26 126.68,-97.53 120.96,-97.65 115.27,-97.59 109.64,-97.38 104.06,-97.01 98.55,-96.48 93.13,-95.8 87.81,-94.97 82.59,-94 77.48,-92.89 72.5,-91.66 67.65,-90.3 62.95,-88.83 58.4,-87.25 54,-85.57 49.78,-83.8 45.72,-81.94 41.85,-80.01 38.16,-78.01 34.67,-75.96 31.37,-73.85 28.28,-71.7 25.4,-69.52 22.74,-67.31 20.3,-65.08 18.08,-62.84 16.1,-60.6 14.36,-58.36 12.85,-56.12 11.59,-53.9 10.59,-51.7 9.84,-49.53 9.35,-47.38 9.12,-45.26 9.15,-43.18 9.46,-41.14 10.03,-39.14 10.89,-37.19 12.01,-35.29 13.42,-33.43 15.1,-31.63 17.06,-29.88 19.29,-28.18 21.8,-26.53 24.59,-24.95 27.64,-23.42 30.96,-21.95 34.54,-20.53 38.38,-19.18 42.46,-17.88 46.79,-16.65 51.35,-15.48 56.13,-14.37 61.12,-13.32 66.31,-12.34 71.69,-11.43 77.25,-10.59 82.96,-9.82 88.82,-9.12 94.8,-8.5 100.89,-7.95 107.07,-7.49 113.33,-7.11 119.63,-6.81 125.97,-6.61 132.33,-6.49 138.67,-6.47 144.98,-6.55 151.24,-6.73 157.43,-7.01 163.53,-7.4 169.51,-7.89 175.35,-8.5 181.04,-9.22 186.55,-10.05 191.86,-11 196.96,-12.07 201.82,-13.25 206.43,-14.55 210.77,-15.96 214.83,-17.49 218.59,-19.12 222.04,-20.87 225.16,-22.73 227.96,-24.69 230.41,-26.75 232.51,-28.9 234.25,-31.14 235.64,-33.47 236.66,-35.87 237.31,-38.34 237.6,-40.87 237.52,-43.45 237.08,-46.07 236.28,-48.73 235.13,-51.42 233.63,-54.11 231.79,-56.82 229.62,-59.51 227.14,-62.19 224.34,-64.84 221.25,-67.45 217.87,-70.02 214.23,-72.52"/>
<text text-anchor="middle" x="118.87" y="-45.08" font-family="sans-serif" font-size="16.00">gestionCliente</text>
</g>
<!-- gestionpagos -->
<g id="node2" class="node">
<title>gestionpagos</title>
<polygon fill="none" stroke="black" stroke-width="2" points="334.86,-89.5 328.23,-88.48 321.76,-87.37 315.46,-86.14 309.37,-84.83 303.51,-83.41 297.89,-81.91 292.56,-80.33 287.52,-78.67 282.8,-76.94 278.41,-75.14 274.36,-73.27 270.69,-71.35 267.38,-69.38 264.46,-67.37 261.94,-65.31 259.81,-63.22 258.09,-61.1 256.77,-58.95 255.86,-56.79 255.35,-54.61 255.23,-52.43 255.51,-50.24 256.18,-48.06 257.22,-45.88 258.62,-43.72 260.37,-41.58 262.46,-39.46 264.87,-37.36 267.59,-35.3 270.6,-33.28 273.88,-31.29 277.41,-29.35 281.18,-27.47 285.16,-25.63 289.34,-23.85 293.7,-22.14 298.21,-20.49 302.87,-18.91 307.64,-17.41 312.52,-15.98 317.49,-14.63 322.52,-13.36 327.61,-12.19 332.74,-11.1 337.89,-10.1 343.06,-9.21 348.22,-8.41 353.37,-7.71 358.51,-7.11 363.6,-6.62 368.66,-6.24 373.68,-5.97 378.63,-5.81 383.53,-5.76 388.37,-5.82 393.13,-6 397.82,-6.29 402.44,-6.7 406.97,-7.23 411.42,-7.87 415.78,-8.62 420.06,-9.48 424.24,-10.46 428.33,-11.55 432.33,-12.74 436.22,-14.04 440.01,-15.45 443.69,-16.95 447.26,-18.55 450.71,-20.24 454.03,-22.03 457.23,-23.89 460.29,-25.83 463.21,-27.85 465.98,-29.94 468.58,-32.08 471.02,-34.29 473.28,-36.54 475.35,-38.84 477.22,-41.17 478.88,-43.53 480.32,-45.91 481.53,-48.31 482.49,-50.72 483.2,-53.13 483.65,-55.52 483.82,-57.91 483.7,-60.27 483.3,-62.59 482.59,-64.89 481.57,-67.13 480.24,-69.32 478.58,-71.46 476.6,-73.52 474.29,-75.51 471.65,-77.43 468.69,-79.25 465.39,-80.99 461.77,-82.63 457.83,-84.17 453.58,-85.6 449.03,-86.92 444.18,-88.12 439.05,-89.21 433.66,-90.18 428.01,-91.02 422.13,-91.74 416.04,-92.33 409.75,-92.79 403.29,-93.12 396.69,-93.33 389.96,-93.4 383.13,-93.35 376.23,-93.16 369.28,-92.85 362.32,-92.42 355.37,-91.87 348.45,-91.19 341.61,-90.4 334.86,-89.5"/>
<text text-anchor="middle" x="374.87" y="-45.08" font-family="sans-serif" font-size="16.00">gestionpagos</text>
</g>
<!-- ventas -->
<g id="node3" class="node">
<title>ventas</title>
<polygon fill="none" stroke="black" stroke-width="2" points="260.67,-234.56 256.19,-235.16 251.71,-235.65 247.23,-236 242.77,-236.24 238.36,-236.34 234.01,-236.31 229.73,-236.16 225.55,-235.87 221.48,-235.45 217.52,-234.9 213.7,-234.22 210.03,-233.42 206.52,-232.49 203.17,-231.43 200.01,-230.26 197.03,-228.97 194.24,-227.57 191.65,-226.05 189.27,-224.44 187.09,-222.72 185.12,-220.91 183.36,-219.01 181.81,-217.03 180.48,-214.97 179.35,-212.85 178.42,-210.66 177.7,-208.42 177.18,-206.13 176.85,-203.8 176.71,-201.43 176.76,-199.04 176.98,-196.64 177.37,-194.22 177.93,-191.8 178.64,-189.39 179.5,-186.99 180.51,-184.61 181.65,-182.26 182.92,-179.95 184.32,-177.67 185.83,-175.45 187.46,-173.28 189.19,-171.17 191.02,-169.13 192.94,-167.16 194.96,-165.27 197.06,-163.46 199.24,-161.74 201.5,-160.11 203.83,-158.58 206.24,-157.14 208.72,-155.81 211.27,-154.59 213.88,-153.47 216.56,-152.46 219.3,-151.56 222.1,-150.78 224.95,-150.11 227.87,-149.55 230.84,-149.11 233.86,-148.78 236.94,-148.57 240.06,-148.47 243.23,-148.48 246.43,-148.61 249.68,-148.85 252.96,-149.2 256.27,-149.65 259.6,-150.21 262.95,-150.87 266.31,-151.64 269.67,-152.5 273.03,-153.46 276.38,-154.52 279.7,-155.66 282.99,-156.89 286.23,-158.21 289.43,-159.61 292.55,-161.08 295.61,-162.63 298.57,-164.25 301.43,-165.94 304.18,-167.69 306.81,-169.5 309.3,-171.37 311.63,-173.29 313.81,-175.25 315.81,-177.26 317.62,-179.31 319.24,-181.39 320.65,-183.5 321.84,-185.63 322.81,-187.79 323.54,-189.96 324.03,-192.14 324.27,-194.33 324.26,-196.52 323.99,-198.71 323.46,-200.88 322.67,-203.04 321.62,-205.18 320.3,-207.29 318.73,-209.37 316.9,-211.41 314.82,-213.41 312.5,-215.36 309.94,-217.25 307.15,-219.09 304.15,-220.86 300.94,-222.56 297.53,-224.18 293.95,-225.72 290.2,-227.18 286.3,-228.54 282.26,-229.81 278.11,-230.98 273.86,-232.04 269.52,-232.99 265.12,-233.84 260.67,-234.56"/>
<text text-anchor="middle" x="246.87" y="-187.82" font-family="sans-serif" font-size="16.00">ventas</text>
</g>
<!-- ventas&#45;&gt;gestionCliente -->
<g id="edge2" class="edge">
<title>ventas&#45;&gt;gestionCliente</title>
<path fill="none" stroke="black" stroke-width="2" d="M193.83,-166.18C177.3,-156.47 160.2,-143.94 147.87,-128.76 140.51,-119.7 134.91,-108.6 130.7,-97.62"/>
<text text-anchor="middle" x="223.37" y="-119.16" font-family="sans-serif" font-size="12.00"> &#160;&#160;&#160;&#160;&#160;&#160;&#160;&#160;&#160;&#160;&#160;&#160;&#160;&#160;&#160;&#160;&#160;&#160;&#160;&#160;&#160;&#160;&#160;&#160;&#160;&#160;&#160;&#160;&#160;&#160;&#160;&#160;&#160;&#160;&#160;&#160;&#160;&#160;&#160;</text>
<polygon fill="white" stroke="transparent" points="123.7,-88.62 123.7,-105.62 137.7,-105.62 137.7,-88.62 123.7,-88.62"/>
<text text-anchor="start" x="125.7" y="-94.02" font-family="sans-serif" font-size="12.00">D</text>
<polygon fill="white" stroke="transparent" points="186.83,-157.18 186.83,-174.18 200.83,-174.18 200.83,-157.18 186.83,-157.18"/>
<text text-anchor="start" x="188.83" y="-162.58" font-family="sans-serif" font-size="12.00">U</text>
</g>
<!-- ventas&#45;&gt;gestionpagos -->
<g id="edge1" class="edge">
<title>ventas&#45;&gt;gestionpagos</title>
<path fill="none" stroke="black" stroke-width="2" d="M279.17,-155.11C297.16,-135.32 319.63,-110.61 338.28,-90.11"/>
<text text-anchor="middle" x="355.87" y="-119.16" font-family="sans-serif" font-size="12.00">Shared Kernel</text>
</g>
</g>
</svg>
