<svg width="2000px" height="938px"
 viewBox="0.00 0.00 518.36 242.95" xmlns="http://www.w3.org/2000/svg" xmlns:xlink="http://www.w3.org/1999/xlink">
<g id="graph0" class="graph" transform="scale(1.0 1.0) rotate(0) translate(4 238.95)">
<title>ContextMapGraph</title>
<polygon fill="white" stroke="transparent" points="-4,4 -4,-238.95 514.36,-238.95 514.36,4 -4,4"/>
<!-- gestionCliente -->
<g id="node1" class="node">
<title>gestionCliente</title>
<polygon fill="none" stroke="black" stroke-width="2" points="93.96,-3.58 101.02,-2.73 108.14,-2.01 115.26,-1.41 122.38,-0.93 129.45,-0.59 136.46,-0.38 143.38,-0.3 150.17,-0.36 156.82,-0.56 163.31,-0.89 169.61,-1.36 175.69,-1.96 181.56,-2.7 187.17,-3.57 192.53,-4.56 197.62,-5.69 202.42,-6.94 206.93,-8.31 211.13,-9.79 215.02,-11.39 218.6,-13.09 221.86,-14.88 224.79,-16.78 227.41,-18.76 229.7,-20.82 231.68,-22.95 233.35,-25.15 234.7,-27.4 235.76,-29.71 236.51,-32.06 236.98,-34.45 237.17,-36.86 237.08,-39.3 236.73,-41.74 236.13,-44.19 235.28,-46.63 234.2,-49.06 232.89,-51.47 231.36,-53.85 229.63,-56.19 227.69,-58.5 225.57,-60.75 223.26,-62.95 220.78,-65.09 218.13,-67.16 215.31,-69.15 212.34,-71.07 209.22,-72.91 205.94,-74.66 202.53,-76.31 198.98,-77.88 195.29,-79.34 191.47,-80.7 187.52,-81.96 183.44,-83.11 179.23,-84.16 174.91,-85.09 170.46,-85.92 165.89,-86.63 161.22,-87.24 156.42,-87.73 151.53,-88.11 146.53,-88.38 141.43,-88.54 136.23,-88.58 130.96,-88.52 125.6,-88.36 120.17,-88.08 114.69,-87.71 109.15,-87.23 103.57,-86.65 97.97,-85.97 92.35,-85.19 86.73,-84.32 81.13,-83.36 75.56,-82.31 70.04,-81.17 64.58,-79.95 59.22,-78.65 53.96,-77.27 48.82,-75.82 43.83,-74.29 39.01,-72.69 34.38,-71.03 29.96,-69.3 25.77,-67.52 21.82,-65.67 18.15,-63.78 14.77,-61.83 11.7,-59.85 8.96,-57.82 6.56,-55.75 4.51,-53.65 2.85,-51.52 1.57,-49.37 0.69,-47.2 0.21,-45.01 0.15,-42.82 0.52,-40.62 1.3,-38.42 2.52,-36.23 4.16,-34.05 6.22,-31.89 8.7,-29.76 11.6,-27.65 14.9,-25.57 18.59,-23.54 22.66,-21.56 27.1,-19.63 31.88,-17.76 36.99,-15.95 42.41,-14.22 48.11,-12.56 54.08,-10.99 60.29,-9.5 66.7,-8.11 73.31,-6.82 80.07,-5.63 86.96,-4.55 93.96,-3.58"/>
<text text-anchor="middle" x="125.85" y="-41.88" font-family="sans-serif" font-size="16.00">gestionCliente</text>
</g>
<!-- gestionpagos -->
<g id="node2" class="node">
<title>gestionpagos</title>
<polygon fill="none" stroke="black" stroke-width="2" points="336.22,-84.02 330.01,-82.63 323.99,-81.15 318.18,-79.57 312.6,-77.91 307.29,-76.16 302.25,-74.35 297.51,-72.46 293.1,-70.52 289.02,-68.52 285.3,-66.47 281.94,-64.38 278.96,-62.25 276.37,-60.09 274.18,-57.91 272.39,-55.71 271.01,-53.5 270.04,-51.28 269.48,-49.06 269.32,-46.85 269.56,-44.65 270.21,-42.46 271.24,-40.29 272.65,-38.14 274.43,-36.03 276.56,-33.95 279.03,-31.9 281.84,-29.9 284.95,-27.94 288.35,-26.04 292.03,-24.18 295.96,-22.39 300.12,-20.65 304.51,-18.97 309.08,-17.37 313.83,-15.83 318.74,-14.36 323.78,-12.97 328.93,-11.65 334.18,-10.42 339.5,-9.26 344.88,-8.2 350.3,-7.22 355.74,-6.33 361.2,-5.53 366.64,-4.83 372.06,-4.22 377.45,-3.72 382.79,-3.31 388.08,-3 393.29,-2.8 398.43,-2.71 403.49,-2.72 408.45,-2.84 413.32,-3.07 418.08,-3.4 422.73,-3.85 427.28,-4.41 431.7,-5.08 436.01,-5.86 440.19,-6.75 444.25,-7.75 448.19,-8.86 451.99,-10.07 455.66,-11.39 459.2,-12.81 462.61,-14.33 465.87,-15.95 469,-17.66 471.97,-19.46 474.81,-21.35 477.48,-23.32 480.01,-25.36 482.36,-27.48 484.56,-29.66 486.57,-31.9 488.41,-34.19 490.06,-36.53 491.52,-38.91 492.78,-41.33 493.82,-43.76 494.65,-46.22 495.25,-48.68 495.62,-51.15 495.74,-53.61 495.61,-56.06 495.23,-58.48 494.57,-60.87 493.65,-63.22 492.44,-65.53 490.95,-67.78 489.17,-69.96 487.09,-72.08 484.71,-74.12 482.04,-76.07 479.07,-77.93 475.79,-79.69 472.22,-81.35 468.36,-82.9 464.21,-84.34 459.78,-85.65 455.08,-86.84 450.12,-87.9 444.9,-88.83 439.45,-89.63 433.78,-90.29 427.9,-90.81 421.83,-91.2 415.6,-91.44 409.21,-91.55 402.71,-91.52 396.1,-91.34 389.41,-91.04 382.67,-90.6 375.9,-90.02 369.13,-89.32 362.39,-88.5 355.7,-87.55 349.09,-86.48 342.59,-85.3 336.22,-84.02"/>
<text text-anchor="middle" x="389.85" y="-41.88" font-family="sans-serif" font-size="16.00">gestionpagos</text>
</g>
<!-- ventas -->
<g id="node3" class="node">
<title>ventas</title>
<polygon fill="none" stroke="black" stroke-width="2" points="221.24,-150.31 225.13,-148.78 229.1,-147.37 233.12,-146.08 237.2,-144.91 241.3,-143.87 245.42,-142.97 249.53,-142.21 253.64,-141.58 257.71,-141.11 261.74,-140.78 265.71,-140.6 269.61,-140.57 273.44,-140.69 277.17,-140.97 280.8,-141.39 284.32,-141.97 287.72,-142.69 290.99,-143.56 294.13,-144.57 297.12,-145.72 299.97,-147 302.67,-148.4 305.22,-149.93 307.61,-151.57 309.84,-153.33 311.92,-155.18 313.83,-157.14 315.58,-159.17 317.17,-161.29 318.6,-163.48 319.87,-165.73 320.98,-168.04 321.94,-170.39 322.74,-172.78 323.4,-175.19 323.9,-177.63 324.26,-180.08 324.47,-182.53 324.54,-184.97 324.48,-187.4 324.27,-189.82 323.93,-192.2 323.46,-194.55 322.86,-196.85 322.13,-199.11 321.27,-201.32 320.28,-203.46 319.17,-205.54 317.93,-207.55 316.57,-209.49 315.09,-211.35 313.48,-213.13 311.75,-214.82 309.9,-216.43 307.93,-217.95 305.84,-219.37 303.64,-220.71 301.31,-221.95 298.87,-223.09 296.31,-224.14 293.64,-225.09 290.86,-225.95 287.97,-226.71 284.98,-227.37 281.88,-227.94 278.69,-228.41 275.41,-228.78 272.04,-229.06 268.59,-229.24 265.07,-229.34 261.48,-229.33 257.83,-229.24 254.14,-229.06 250.41,-228.78 246.65,-228.42 242.87,-227.96 239.09,-227.42 235.31,-226.79 231.55,-226.07 227.82,-225.27 224.13,-224.38 220.51,-223.41 216.95,-222.35 213.48,-221.21 210.11,-219.99 206.86,-218.69 203.73,-217.31 200.74,-215.85 197.9,-214.32 195.23,-212.71 192.74,-211.03 190.45,-209.28 188.35,-207.46 186.47,-205.58 184.81,-203.64 183.38,-201.63 182.19,-199.58 181.24,-197.47 180.55,-195.32 180.11,-193.12 179.93,-190.89 180.01,-188.63 180.35,-186.34 180.95,-184.03 181.81,-181.71 182.93,-179.39 184.3,-177.06 185.92,-174.74 187.78,-172.44 189.88,-170.16 192.19,-167.91 194.72,-165.7 197.46,-163.53 200.39,-161.42 203.49,-159.37 206.77,-157.39 210.19,-155.48 213.76,-153.66 217.45,-151.93 221.24,-150.31"/>
<text text-anchor="middle" x="257.85" y="-183.86" font-family="sans-serif" font-size="16.00">ventas</text>
</g>
<!-- ventas&#45;&gt;gestionCliente -->
<g id="edge1" class="edge">
<title>ventas&#45;&gt;gestionCliente</title>
<path fill="none" stroke="black" stroke-width="2" d="M222.82,-149.52C204.64,-130.24 182.41,-106.66 163.82,-86.95"/>
<text text-anchor="middle" x="271.35" y="-112.77" font-family="sans-serif" font-size="12.00"> &#160;&#160;&#160;&#160;&#160;&#160;&#160;&#160;&#160;&#160;&#160;&#160;&#160;&#160;&#160;&#160;&#160;&#160;&#160;&#160;&#160;&#160;&#160;&#160;&#160;&#160;&#160;&#160;&#160;&#160;&#160;&#160;&#160;&#160;&#160;&#160;&#160;&#160;&#160;</text>
<polygon fill="white" stroke="transparent" points="156.82,-77.95 156.82,-94.95 170.82,-94.95 170.82,-77.95 156.82,-77.95"/>
<text text-anchor="start" x="158.82" y="-83.35" font-family="sans-serif" font-size="12.00">D</text>
<polygon fill="white" stroke="transparent" points="215.82,-140.52 215.82,-157.52 229.82,-157.52 229.82,-140.52 215.82,-140.52"/>
<text text-anchor="start" x="217.82" y="-145.92" font-family="sans-serif" font-size="12.00">U</text>
</g>
<!-- ventas&#45;&gt;gestionpagos -->
<g id="edge2" class="edge">
<title>ventas&#45;&gt;gestionpagos</title>
<path fill="none" stroke="black" stroke-width="2" d="M312.64,-155.36C326.21,-145.93 339.96,-134.75 350.85,-122.37 359.24,-112.82 366.39,-101.14 372.19,-89.85"/>
<text text-anchor="middle" x="401.85" y="-112.77" font-family="sans-serif" font-size="12.00">Shared Kernel</text>
</g>
</g>
</svg>
