<svg width="2000px" height="1041px"
 viewBox="0.00 0.00 462.99 240.92" xmlns="http://www.w3.org/2000/svg" xmlns:xlink="http://www.w3.org/1999/xlink">
<g id="graph0" class="graph" transform="scale(1.0 1.0) rotate(0) translate(4 236.92)">
<title>ContextMapGraph</title>
<polygon fill="white" stroke="transparent" points="-4,4 -4,-236.92 458.99,-236.92 458.99,4 -4,4"/>
<!-- gestionCliente -->
<g id="node1" class="node">
<title>gestionCliente</title>
<polygon fill="none" stroke="black" stroke-width="2" points="98.07,-86.93 90.83,-86.34 83.7,-85.64 76.71,-84.83 69.89,-83.9 63.28,-82.87 56.88,-81.74 50.74,-80.5 44.87,-79.17 39.3,-77.75 34.04,-76.24 29.12,-74.64 24.55,-72.97 20.34,-71.22 16.51,-69.4 13.08,-67.51 10.04,-65.57 7.4,-63.57 5.17,-61.52 3.35,-59.43 1.94,-57.3 0.94,-55.14 0.34,-52.95 0.14,-50.74 0.33,-48.51 0.9,-46.28 1.84,-44.03 3.13,-41.79 4.77,-39.56 6.74,-37.34 9.02,-35.14 11.6,-32.96 14.45,-30.81 17.57,-28.69 20.94,-26.61 24.52,-24.58 28.32,-22.6 32.31,-20.68 36.47,-18.82 40.78,-17.02 45.23,-15.29 49.81,-13.63 54.49,-12.06 59.26,-10.56 64.1,-9.16 69.01,-7.84 73.97,-6.62 78.98,-5.5 84,-4.48 89.05,-3.56 94.11,-2.75 99.18,-2.05 104.23,-1.46 109.28,-0.99 114.31,-0.63 119.32,-0.39 124.31,-0.26 129.26,-0.26 134.19,-0.37 139.07,-0.6 143.92,-0.96 148.73,-1.43 153.48,-2.02 158.2,-2.72 162.85,-3.54 167.45,-4.48 172,-5.52 176.47,-6.68 180.88,-7.94 185.2,-9.3 189.45,-10.77 193.6,-12.32 197.65,-13.97 201.6,-15.71 205.42,-17.53 209.12,-19.43 212.68,-21.4 216.09,-23.43 219.33,-25.53 222.39,-27.68 225.27,-29.88 227.94,-32.12 230.39,-34.4 232.6,-36.7 234.57,-39.03 236.28,-41.38 237.71,-43.74 238.86,-46.09 239.7,-48.44 240.22,-50.78 240.42,-53.1 240.28,-55.4 239.79,-57.66 238.95,-59.89 237.75,-62.07 236.17,-64.19 234.23,-66.26 231.91,-68.27 229.21,-70.2 226.15,-72.06 222.71,-73.84 218.91,-75.53 214.74,-77.13 210.24,-78.63 205.39,-80.04 200.22,-81.34 194.74,-82.54 188.97,-83.62 182.93,-84.6 176.63,-85.45 170.11,-86.19 163.38,-86.81 156.47,-87.31 149.4,-87.69 142.21,-87.95 134.93,-88.08 127.57,-88.09 120.18,-87.98 112.78,-87.75 105.4,-87.4 98.07,-86.93"/>
<text text-anchor="middle" x="122.86" y="-40.23" font-family="sans-serif" font-size="16.00">gestionCliente</text>
</g>
<!-- gestionpagos -->
<g id="node2" class="node">
<title>gestionpagos</title>
<polygon fill="none" stroke="black" stroke-width="2" points="401.72,-219.86 396.14,-221.64 390.42,-223.3 384.58,-224.85 378.63,-226.28 372.61,-227.58 366.52,-228.75 360.4,-229.79 354.27,-230.67 348.14,-231.42 342.05,-232.01 336,-232.44 330.01,-232.73 324.11,-232.85 318.32,-232.82 312.64,-232.63 307.09,-232.29 301.68,-231.79 296.44,-231.14 291.36,-230.33 286.47,-229.39 281.76,-228.3 277.25,-227.07 272.94,-225.71 268.85,-224.23 264.97,-222.62 261.31,-220.91 257.87,-219.09 254.65,-217.17 251.66,-215.16 248.9,-213.07 246.37,-210.91 244.06,-208.68 241.98,-206.4 240.13,-204.07 238.5,-201.7 237.09,-199.3 235.91,-196.89 234.95,-194.46 234.2,-192.02 233.67,-189.59 233.36,-187.17 233.26,-184.77 233.38,-182.4 233.71,-180.06 234.25,-177.76 234.99,-175.5 235.95,-173.3 237.12,-171.15 238.5,-169.07 240.08,-167.05 241.88,-165.1 243.88,-163.22 246.09,-161.41 248.51,-159.69 251.14,-158.05 253.97,-156.49 257.02,-155.02 260.26,-153.63 263.72,-152.33 267.37,-151.11 271.22,-149.99 275.27,-148.96 279.5,-148.01 283.93,-147.15 288.53,-146.39 293.3,-145.71 298.25,-145.12 303.34,-144.63 308.59,-144.22 313.97,-143.9 319.48,-143.66 325.09,-143.52 330.81,-143.46 336.61,-143.49 342.47,-143.61 348.39,-143.82 354.33,-144.11 360.3,-144.5 366.25,-144.97 372.18,-145.52 378.07,-146.17 383.88,-146.9 389.61,-147.73 395.23,-148.64 400.72,-149.63 406.06,-150.72 411.22,-151.89 416.18,-153.15 420.93,-154.5 425.44,-155.93 429.7,-157.44 433.68,-159.03 437.37,-160.71 440.75,-162.47 443.8,-164.3 446.51,-166.2 448.87,-168.17 450.87,-170.21 452.5,-172.32 453.74,-174.48 454.59,-176.69 455.06,-178.95 455.13,-181.26 454.8,-183.6 454.08,-185.97 452.96,-188.36 451.46,-190.77 449.58,-193.18 447.32,-195.6 444.7,-198.01 441.73,-200.41 438.42,-202.78 434.78,-205.12 430.84,-207.42 426.6,-209.67 422.09,-211.86 417.33,-213.98 412.33,-216.03 407.12,-217.99 401.72,-219.86"/>
<text text-anchor="middle" x="335.86" y="-181.19" font-family="sans-serif" font-size="16.00">gestionpagos</text>
</g>
<!-- ventas -->
<g id="node3" class="node">
<title>ventas</title>
<polygon fill="none" stroke="black" stroke-width="2" points="135.83,-141.87 140.36,-142.36 144.81,-142.96 149.19,-143.68 153.47,-144.51 157.63,-145.45 161.66,-146.5 165.53,-147.64 169.25,-148.89 172.78,-150.23 176.12,-151.67 179.27,-153.2 182.19,-154.8 184.9,-156.49 187.37,-158.25 189.61,-160.09 191.6,-161.99 193.35,-163.94 194.84,-165.95 196.09,-168.02 197.08,-170.12 197.82,-172.26 198.31,-174.44 198.56,-176.64 198.57,-178.87 198.34,-181.11 197.88,-183.35 197.21,-185.61 196.31,-187.86 195.22,-190.1 193.93,-192.33 192.45,-194.53 190.8,-196.72 188.98,-198.87 187.02,-200.98 184.9,-203.06 182.66,-205.08 180.3,-207.06 177.82,-208.97 175.25,-210.83 172.58,-212.61 169.84,-214.32 167.03,-215.96 164.15,-217.51 161.23,-218.98 158.26,-220.36 155.25,-221.64 152.21,-222.83 149.15,-223.91 146.07,-224.9 142.98,-225.77 139.88,-226.54 136.78,-227.2 133.67,-227.74 130.58,-228.16 127.48,-228.47 124.4,-228.66 121.33,-228.74 118.27,-228.69 115.23,-228.52 112.2,-228.24 109.2,-227.83 106.21,-227.31 103.25,-226.67 100.32,-225.91 97.41,-225.04 94.54,-224.06 91.7,-222.97 88.9,-221.77 86.14,-220.47 83.43,-219.07 80.77,-217.57 78.16,-215.98 75.62,-214.3 73.15,-212.54 70.75,-210.7 68.43,-208.78 66.21,-206.8 64.08,-204.75 62.06,-202.65 60.16,-200.49 58.38,-198.29 56.73,-196.05 55.23,-193.78 53.88,-191.49 52.69,-189.17 51.67,-186.84 50.83,-184.51 50.18,-182.17 49.72,-179.85 49.47,-177.53 49.43,-175.24 49.6,-172.98 50,-170.75 50.63,-168.56 51.48,-166.42 52.57,-164.33 53.9,-162.3 55.46,-160.33 57.26,-158.44 59.29,-156.62 61.56,-154.88 64.05,-153.23 66.76,-151.66 69.68,-150.2 72.82,-148.83 76.15,-147.56 79.66,-146.4 83.36,-145.35 87.21,-144.41 91.21,-143.58 95.35,-142.87 99.61,-142.28 103.97,-141.81 108.41,-141.45 112.92,-141.22 117.48,-141.11 122.07,-141.12 126.67,-141.25 131.26,-141.5 135.83,-141.87"/>
<text text-anchor="middle" x="122.86" y="-181.19" font-family="sans-serif" font-size="16.00">ventas</text>
</g>
<!-- ventas&#45;&gt;gestionCliente -->
<g id="edge1" class="edge">
<title>ventas&#45;&gt;gestionCliente</title>
<path fill="none" stroke="black" stroke-width="2" d="M122.86,-140.79C122.86,-124.05 122.86,-104.94 122.86,-88.21"/>
<text text-anchor="middle" x="198.36" y="-109.46" font-family="sans-serif" font-size="12.00"> &#160;&#160;&#160;&#160;&#160;&#160;&#160;&#160;&#160;&#160;&#160;&#160;&#160;&#160;&#160;&#160;&#160;&#160;&#160;&#160;&#160;&#160;&#160;&#160;&#160;&#160;&#160;&#160;&#160;&#160;&#160;&#160;&#160;&#160;&#160;&#160;&#160;&#160;&#160;</text>
<polygon fill="white" stroke="transparent" points="115.86,-79.21 115.86,-96.21 129.86,-96.21 129.86,-79.21 115.86,-79.21"/>
<text text-anchor="start" x="117.86" y="-84.61" font-family="sans-serif" font-size="12.00">D</text>
<polygon fill="white" stroke="transparent" points="115.86,-131.79 115.86,-148.79 129.86,-148.79 129.86,-131.79 115.86,-131.79"/>
<text text-anchor="start" x="117.86" y="-137.19" font-family="sans-serif" font-size="12.00">U</text>
</g>
</g>
</svg>
